<svg xmlns="http://www.w3.org/2000/svg" width="1200" height="630" viewBox="0 0 1200 630">
  <defs>
    <linearGradient id="bg" x1="0%" y1="0%" x2="100%" y2="100%">
      <stop offset="0%" style="stop-color:#0d0d0d;stop-opacity:1" />
      <stop offset="100%" style="stop-color:#1a0f00;stop-opacity:1" />
    </linearGradient>
    <linearGradient id="accent" x1="0%" y1="0%" x2="100%" y2="0%">
      <stop offset="0%" style="stop-color:#F26C22;stop-opacity:1" />
      <stop offset="100%" style="stop-color:#ff8c42;stop-opacity:1" />
    </linearGradient>
  </defs>

  <!-- Background -->
  <rect width="1200" height="630" fill="url(#bg)"/>

  <!-- Subtle grid -->
  <line x1="0" y1="210" x2="1200" y2="210" stroke="#2a1a00" stroke-width="1"/>
  <line x1="0" y1="420" x2="1200" y2="420" stroke="#2a1a00" stroke-width="1"/>
  <line x1="400" y1="0" x2="400" y2="630" stroke="#2a1a00" stroke-width="1"/>
  <line x1="800" y1="0" x2="800" y2="630" stroke="#2a1a00" stroke-width="1"/>

  <!-- Accent bar top -->
  <rect x="0" y="0" width="1200" height="4" fill="url(#accent)"/>

  <!-- Logo mark -->
  <rect x="80" y="80" width="52" height="52" rx="10" fill="#F26C22"/>
  <text x="106" y="116" font-family="'Inter',Arial,sans-serif" font-size="28" font-weight="800" fill="white" text-anchor="middle">Z</text>

  <!-- ZENTI wordmark -->
  <text x="148" y="116" font-family="'Inter',Arial,sans-serif" font-size="30" font-weight="800" fill="white" letter-spacing="3">ZENTI</text>

  <!-- Tagline under logo -->
  <text x="80" y="148" font-family="'Inter',Arial,sans-serif" font-size="13" fill="#6b7280" letter-spacing="2">GRANTS · AI</text>

  <!-- Main headline -->
  <text x="80" y="260" font-family="'Inter',Arial,sans-serif" font-size="60" font-weight="800" fill="white">Postula a fondos con</text>
  <text x="80" y="335" font-family="'Inter',Arial,sans-serif" font-size="60" font-weight="800" fill="#F26C22">inteligencia artificial</text>

  <!-- Subtext -->
  <text x="80" y="396" font-family="'Inter',Arial,sans-serif" font-size="21" fill="#6b7280">CORFO · ANID · Startup Chile · NSF SBIR · EIC Accelerator</text>

  <!-- Stat boxes -->
  <rect x="80" y="450" width="210" height="96" rx="10" fill="#1a1a1a"/>
  <rect x="80" y="450" width="3" height="96" rx="1" fill="#F26C22"/>
  <text x="192" y="500" font-family="'Inter',Arial,sans-serif" font-size="34" font-weight="800" fill="#F26C22" text-anchor="middle">+180M</text>
  <text x="192" y="526" font-family="'Inter',Arial,sans-serif" font-size="13" fill="#6b7280" text-anchor="middle">CLP disponibles</text>

  <rect x="308" y="450" width="210" height="96" rx="10" fill="#1a1a1a"/>
  <rect x="308" y="450" width="3" height="96" rx="1" fill="#F26C22"/>
  <text x="420" y="500" font-family="'Inter',Arial,sans-serif" font-size="34" font-weight="800" fill="#F26C22" text-anchor="middle">28</text>
  <text x="420" y="526" font-family="'Inter',Arial,sans-serif" font-size="13" fill="#6b7280" text-anchor="middle">fondos activos</text>

  <rect x="536" y="450" width="210" height="96" rx="10" fill="#1a1a1a"/>
  <rect x="536" y="450" width="3" height="96" rx="1" fill="#F26C22"/>
  <text x="648" y="500" font-family="'Inter',Arial,sans-serif" font-size="34" font-weight="800" fill="#F26C22" text-anchor="middle">IA</text>
  <text x="648" y="526" font-family="'Inter',Arial,sans-serif" font-size="13" fill="#6b7280" text-anchor="middle">análisis en segundos</text>

  <!-- Right side: globe decoration in brand orange -->
  <circle cx="1010" cy="315" r="195" fill="none" stroke="#3d1a00" stroke-width="1.5"/>
  <circle cx="1010" cy="315" r="145" fill="none" stroke="#3d1a00" stroke-width="1"/>
  <circle cx="1010" cy="315" r="95" fill="none" stroke="#F26C22" stroke-width="1" opacity="0.25"/>
  <ellipse cx="1010" cy="315" rx="195" ry="78" fill="none" stroke="#3d1a00" stroke-width="1"/>
  <ellipse cx="1010" cy="315" rx="195" ry="135" fill="none" stroke="#3d1a00" stroke-width="1"/>
  <line x1="815" y1="315" x2="1205" y2="315" stroke="#3d1a00" stroke-width="1"/>
  <line x1="1010" y1="120" x2="1010" y2="510" stroke="#3d1a00" stroke-width="1"/>

  <!-- Globe dots -->
  <circle cx="940" cy="258" r="5" fill="#F26C22" opacity="0.9"/>
  <circle cx="1070" cy="272" r="4" fill="#ff8c42" opacity="0.8"/>
  <circle cx="1000" cy="342" r="4" fill="#F26C22" opacity="0.8"/>
  <circle cx="1088" cy="352" r="3" fill="#ff8c42" opacity="0.7"/>
  <circle cx="928" cy="312" r="3" fill="#F26C22" opacity="0.7"/>
  <circle cx="1018" cy="292" r="3" fill="#ff8c42" opacity="0.8"/>

  <!-- URL -->
  <text x="80" y="590" font-family="'Inter',Arial,sans-serif" font-size="15" fill="#4b5563">zentigrants.com</text>
</svg>
